<?xml version="1.0" standalone="no"?>
<!DOCTYPE svg PUBLIC "-//W3C//DTD SVG 20010904//EN"
 "http://www.w3.org/TR/2001/REC-SVG-20010904/DTD/svg10.dtd">
<svg version="1.0" xmlns="http://www.w3.org/2000/svg"
 width="518.000000pt" height="518.000000pt" viewBox="0 0 518.000000 518.000000"
 preserveAspectRatio="xMidYMid meet">
<metadata>
Created by potrace 1.11, written by Peter Selinger 2001-2013
</metadata>
<g transform="translate(0.000000,518.000000) scale(0.100000,-0.100000)"
fill="#000000" stroke="none">
<path d="M0 2590 l0 -2590 2590 0 2590 0 0 2590 0 2590 -2590 0 -2590 0 0
-2590z m2255 1400 l230 -230 -113 -112 -112 -113 -188 188 -187 187 -368 0
c-202 0 -367 -3 -367 -7 0 -5 204 -212 452 -460 l453 -453 112 0 113 0 0 -155
0 -155 -176 0 -176 0 -771 770 -772 770 820 0 820 0 230 -230z m1761 -1762
c420 -418 764 -765 764 -770 0 -4 -366 -8 -813 -8 l-812 0 -233 233 -232 232
110 110 110 110 188 -188 187 -187 375 0 375 0 -460 460 -460 460 -112 0 -113
0 0 155 0 155 181 0 180 0 765 -762z m-3396 -1038 l0 -30 -95 0 -95 0 0 -45 0
-45 80 0 80 0 0 -30 0 -30 -80 0 -80 0 0 -55 0 -55 95 0 95 0 0 -30 0 -30
-130 0 -130 0 0 190 0 190 130 0 130 0 0 -30z m161 -36 l36 -66 35 64 c33 60
36 63 76 66 23 2 42 0 42 -4 0 -3 -23 -43 -50 -89 -27 -46 -50 -88 -50 -94 0
-6 19 -41 43 -78 76 -118 75 -113 22 -113 -45 0 -45 0 -75 59 -16 33 -33 62
-38 65 -5 3 -24 -24 -43 -59 -34 -64 -34 -65 -76 -65 -24 0 -43 2 -43 5 0 2
25 45 55 96 l56 91 -42 72 c-23 39 -49 81 -57 94 -14 22 -14 22 30 22 44 0 44
0 79 -66z m529 36 c0 -30 -1 -30 -55 -30 l-55 0 0 -160 0 -160 -40 0 -40 0 0
160 0 160 -55 0 c-54 0 -55 0 -55 30 l0 30 150 0 150 0 0 -30z m266 15 c64
-26 81 -113 31 -157 l-23 -20 28 -28 c23 -23 28 -37 28 -75 0 -25 5 -55 10
-66 10 -17 7 -19 -33 -19 -50 0 -57 10 -57 85 0 54 -13 65 -77 65 l-53 0 0
-75 0 -75 -40 0 -40 0 0 190 0 190 95 0 c61 0 108 -5 131 -15z m394 -15 l0
-30 -95 0 -95 0 0 -45 0 -45 80 0 80 0 0 -30 0 -29 -77 -3 -78 -3 -3 -52 -3
-53 95 0 96 0 0 -30 0 -30 -130 0 -130 0 0 190 0 190 130 0 130 0 0 -30z m200
-107 c25 -73 47 -133 51 -133 3 0 26 60 51 133 l45 132 52 3 51 3 0 -190 0
-191 -35 0 -35 0 -1 138 c0 76 -4 128 -8 117 -4 -11 -27 -73 -50 -137 -41
-111 -45 -118 -70 -118 -26 0 -30 7 -75 135 -27 74 -51 135 -53 135 -2 0 -1
-61 3 -135 l7 -135 -42 0 -41 0 0 191 0 190 52 -3 53 -3 45 -132z m590 107 l0
-30 -95 0 -95 0 0 -45 0 -45 80 0 80 0 0 -30 0 -30 -80 0 -80 0 0 -55 0 -55
95 0 95 0 0 -30 0 -30 -135 0 -135 0 0 190 0 190 135 0 135 0 0 -30z"/>
<path d="M1430 1105 l0 -55 43 0 c51 0 87 22 87 55 0 38 -26 55 -81 55 l-49 0
0 -55z"/>
</g>
</svg>
